<svg id="Capa_1" enable-background="new 0 0 512 512" height="512" viewBox="0 0 512 512" width="512" xmlns="http://www.w3.org/2000/svg"><g><g><path d="m161.898 419.023h-54.389c-48.719 0-88.354-39.636-88.354-88.355v-78.332c0-19.33 15.67-35 35-35s35 15.67 35 35v78.332c0 10.121 8.234 18.355 18.354 18.355h54.389c19.33 0 35 15.67 35 35s-15.67 35-35 35z" fill="#9bd069"/><path d="m138.255 419.017h-30.75c-48.72 0-88.35-39.63-88.35-88.35v-78.33c0-19.33 15.67-35 35-35 5.51 0 10.73 1.28 15.37 3.55-11.62 5.69-19.63 17.63-19.63 31.45v78.33c0 48.72 39.64 88.35 88.36 88.35z" fill="#6ec17d"/><path d="m190.817 140.12c-31.222 0-56.532 25.31-56.532 56.532v303.848h113.064v-303.848c0-31.222-25.31-56.532-56.532-56.532z" fill="#9bd069"/><path d="m208.775 143.032c-22.42 7.5-38.58 28.68-38.58 53.62v303.85h-35.91v-303.85c0-31.22 25.31-56.53 56.53-56.53 6.28 0 12.32 1.02 17.96 2.91z" fill="#6ec17d"/><path d="m257.247 308.644h-30.395c-19.33 0-35-15.67-35-35s15.67-35 35-35h30.395c10.121 0 18.354-8.234 18.354-18.354v-43.272c0-19.33 15.67-35 35-35s35 15.67 35 35v43.272c0 48.718-39.635 88.354-88.354 88.354z" fill="#9bd069"/><path d="m323.261 144.377c-13.08 5.07-22.35 17.77-22.35 32.64v43.27c0 10.12-8.24 18.35-18.36 18.35h-25.3c10.12 0 18.35-8.23 18.35-18.35v-43.27c0-19.33 15.67-35 35-35 4.47.001 8.74.84 12.66 2.36z" fill="#6ec17d"/></g><path d="m411.836 457.833h28.482c25.513 0 46.269-20.756 46.269-46.269v-21.019c0-10.123-8.206-18.329-18.329-18.329s-18.329 8.206-18.329 18.329v21.019c0 5.3-4.312 9.612-9.612 9.612h-28.482c-10.123 0-18.329 8.206-18.329 18.329s8.207 18.328 18.33 18.328z" fill="#9bd069"/><path d="m476.019 373.954c-6.25 2.91-10.57 9.24-10.57 16.59v21.02c0 5.3-4.32 9.62-9.62 9.62h-15.52c5.3 0 9.62-4.32 9.62-9.62v-21.02c0-10.12 8.2-18.32 18.32-18.32 2.78 0 5.41.62 7.77 1.73z" fill="#6ec17d"/><path d="m396.692 331.78c16.35 0 29.604 13.254 29.604 29.604v139.116h-59.209v-139.116c0-16.35 13.255-29.604 29.605-29.604z" fill="#9bd069"/><path d="m408.007 334.024c-10.75 4.44-18.3 15.01-18.3 27.36v139.12h-22.62v-139.12c0-16.35 13.26-29.6 29.61-29.6 4.01 0 7.83.79 11.31 2.24z" fill="#6ec17d"/><path d="m351.904 431.954h15.917c10.123 0 18.329-8.206 18.329-18.329s-8.206-18.329-18.329-18.329h-15.917c-5.3 0-9.612-4.312-9.612-9.612v-22.66c0-10.123-8.206-18.329-18.329-18.329s-18.329 8.206-18.329 18.329v22.66c.001 25.514 20.757 46.27 46.27 46.27z" fill="#9bd069"/><path d="m368.135 431.935c-.1.01-.21.01-.31.01h-15.92c-25.51 0-46.27-20.75-46.27-46.26v-22.67c0-10.12 8.2-18.32 18.33-18.32 2.99 0 5.82.72 8.31 2-5.94 3.02-10.01 9.19-10.01 16.32v22.67c0 25.38 20.53 46.04 45.87 46.25z" fill="#6ec17d"/><circle cx="428.844" cy="79.656" fill="#ffe07d" r="75.656"/><path d="m453.684 151.142c-7.778 2.707-16.143 4.177-24.843 4.177-41.776 0-75.654-33.877-75.654-75.663s33.877-75.654 75.654-75.654c8.7 0 17.064 1.47 24.843 4.178-29.588 10.272-50.82 38.39-50.82 71.476s21.232 61.214 50.82 71.486z" fill="#ffd064"/><g fill="#6ec17d"><path d="m184.19 342.724c-4.142 0-7.5-3.358-7.5-7.5v-.5c0-4.142 3.358-7.5 7.5-7.5s7.5 3.358 7.5 7.5v.5c0 4.142-3.357 7.5-7.5 7.5z"/><path d="m213.454 201.837c-4.142 0-7.5-3.358-7.5-7.5v-.5c0-4.142 3.358-7.5 7.5-7.5s7.5 3.358 7.5 7.5v.5c0 4.142-3.358 7.5-7.5 7.5z"/><path d="m176.653 215.139c-4.142 0-7.5-3.358-7.5-7.5v-.5c0-4.142 3.358-7.5 7.5-7.5s7.5 3.358 7.5 7.5v.5c0 4.142-3.358 7.5-7.5 7.5z"/><path d="m211.237 440.767c-4.142 0-7.5-3.358-7.5-7.5v-.5c0-4.142 3.358-7.5 7.5-7.5s7.5 3.358 7.5 7.5v.5c0 4.142-3.358 7.5-7.5 7.5z"/><path d="m218.775 383.792c-4.142 0-7.5-3.358-7.5-7.5v-.5c0-4.142 3.358-7.5 7.5-7.5s7.5 3.358 7.5 7.5v.5c0 4.142-3.358 7.5-7.5 7.5z"/><path d="m179.535 472.99c-4.142 0-7.5-3.358-7.5-7.5v-.5c0-4.142 3.358-7.5 7.5-7.5s7.5 3.358 7.5 7.5v.5c0 4.142-3.358 7.5-7.5 7.5z"/><path d="m103.494 399.088c-4.142 0-7.5-3.358-7.5-7.5v-.5c0-4.142 3.358-7.5 7.5-7.5s7.5 3.358 7.5 7.5v.5c0 4.142-3.358 7.5-7.5 7.5z"/><path d="m79.107 370.711c-4.142 0-7.5-3.358-7.5-7.5v-.5c0-4.142 3.358-7.5 7.5-7.5s7.5 3.358 7.5 7.5v.5c0 4.143-3.357 7.5-7.5 7.5z"/><path d="m57.825 292.231c-4.142 0-7.5-3.358-7.5-7.5v-.5c0-4.142 3.358-7.5 7.5-7.5s7.5 3.358 7.5 7.5v.5c0 4.143-3.358 7.5-7.5 7.5z"/><path d="m226.756 270.506c-4.142 0-7.5-3.358-7.5-7.5v-.5c0-4.142 3.358-7.5 7.5-7.5s7.5 3.358 7.5 7.5v.5c0 4.142-3.358 7.5-7.5 7.5z"/><path d="m280.406 279.374c-4.142 0-7.5-3.358-7.5-7.5v-.5c0-4.142 3.358-7.5 7.5-7.5s7.5 3.358 7.5 7.5v.5c0 4.142-3.358 7.5-7.5 7.5z"/><path d="m317.207 195.573c-4.142 0-7.5-3.358-7.5-7.5v-.5c0-4.142 3.358-7.5 7.5-7.5s7.5 3.358 7.5 7.5v.5c0 4.142-3.358 7.5-7.5 7.5z"/><path d="m404.222 387.117c-4.142 0-7.5-3.358-7.5-7.5v-.5c0-4.142 3.358-7.5 7.5-7.5s7.5 3.358 7.5 7.5v.5c0 4.142-3.358 7.5-7.5 7.5z"/><path d="m398.791 455.842c-4.142 0-7.5-3.358-7.5-7.5v-.5c0-4.142 3.358-7.5 7.5-7.5s7.5 3.358 7.5 7.5v.5c0 4.142-3.358 7.5-7.5 7.5z"/><path d="m451.11 443.87c-4.142 0-7.5-3.358-7.5-7.5v-.5c0-4.142 3.358-7.5 7.5-7.5s7.5 3.358 7.5 7.5v.5c0 4.142-3.358 7.5-7.5 7.5z"/><path d="m340.594 418.21c-4.142 0-7.5-3.358-7.5-7.5v-.5c0-4.142 3.358-7.5 7.5-7.5s7.5 3.358 7.5 7.5v.5c0 4.143-3.358 7.5-7.5 7.5z"/></g><path d="m504.5 508h-497c-4.142 0-7.5-3.358-7.5-7.5s3.358-7.5 7.5-7.5h497c4.142 0 7.5 3.358 7.5 7.5s-3.358 7.5-7.5 7.5z" fill="#ffd064"/></g></svg>